<?xml version="1.0" encoding="UTF-8"?>
<!-- Generator: Adobe Illustrator 13.0.2, SVG Export Plug-In . SVG Version: 6.00 Build 14948)  -->
<!DOCTYPE svg PUBLIC "-//W3C//DTD SVG 1.0//EN" "http://www.w3.org/TR/2001/REC-SVG-20010904/DTD/svg10.dtd">
<svg version="1.0" id="Layer_1" xmlns="http://www.w3.org/2000/svg" xmlns:xlink="http://www.w3.org/1999/xlink" x="0px" y="0px" width="300px" height="425.928px" viewBox="0 0 300 425.928" enable-background="new 0 0 300 425.928" xml:space="preserve">
<g>
	<path fill="#00235D" d="M87.95,11.708L86.632,1.362L74.969,13.037L64.518,0L54.079,13.037L42.421,1.362l-1.327,10.346   c0,0-6.04-6.197-7.834-8.419c2.897,6.569,6.267,16.125,7.644,22.908c7.123-2.261,16.016-2.909,23.614-2.909   c7.607,0,16.504,0.647,23.627,2.909c1.377-6.782,4.742-16.338,7.64-22.908C93.994,5.511,87.95,11.708,87.95,11.708 M45.199,21.882   l0.206-7.396l7.215,6.129C49.825,20.921,47.278,21.382,45.199,21.882 M64.518,20.032c-2.203,0-4.341,0.058-6.387,0.174l6.387-7.38   l6.408,7.38C68.875,20.09,66.733,20.032,64.518,20.032 M76.429,20.615l7.214-6.129l0.206,7.396   C81.77,21.382,79.228,20.921,76.429,20.615"/>
	<path fill="#00235D" d="M252.068,274.649c-1.472-1.931-4.874-3.833-6.904-10.147c-3.456-10.757-2.91-18.682-4.452-27.056   c-0.905-4.979-2.973-5.937-5.035-11.379c-0.938-2.413-1.836-15.363-1.612-24.144c0.206-7.46,0.211-21.996-4.805-31.784   c15.487-4.074,24.867-13.79,24.31-24.422c-0.877-16.502-22.605-20.998-45.013-20.384c-6.719,0.182-31.292,1.337-30.589-7.76   c0.289-3.954,6.527-6.757,9.145-6.906c2.188,1.66,5.59,4.333,11.204,3.357c11.873-2.057,12.853-14.676,25.156-15.689   c-4.944-4.084-18.646-5.718-26.1-1.007c0-1.447,0.525-2.784,1.121-3.733c-9.96,1.371-12.019,7.332-13.366,10.031   c-10.74,3.595-15.313,9.306-15.102,15.123c0.545,15.569,28.269,14.881,38.021,14.85c10.174-0.042,32.486,1.228,34.487,11.851   c1.352,7.167-8.318,13.719-18.877,14.288c-14.696-16.489-39.154-8.564-62.029-24.859c-26.479-18.844-40.349-20.435-50.222-35.831   c2.386,1.023,7.413,1.71,10.406,0c-5.192-3.929-7.393-7.861-9.642-13.649c-2.74-6.993-4.774-10.063-8.619-13.488   c2.311-0.093,4.771,0.97,6.3,1.548c-0.024-8.39-5.883-14.277-8.206-17.467c-1.988-2.751-3.989-6.887-1.07-10.896   c-3.051-3.357-5.888-1.346-7.095-0.31c-1.029,0.903-1.868,0.738-1.252-1.302c0.628-2.152,2.762-5.11,5.35-4.992   c2.318,0.102,3.484,2.096,3.964,2.824c0.513-4.924-1.327-8.504-4.601-9.136c-1.943-0.368-3.763,0.242-5.151,1.174   c-1.162-1.91-2.134-3.312-5.581-4.496c-1.451-0.496-6.557-1.647-10.514-2.076c-2.773,2.156-5.767,5.368-8.235,9.254   c-0.272-1.85,0.27-5.947,1.414-9.757c-9.881-0.339-24.838,0.6-31.846,5.188c1.406,1.332,2.232,3.122,2.349,4.238   c0.145,1.53-0.435,1.275-1.038,0.657c-0.645-0.63-2.542-2.948-5.589-3.175c-6.399-0.483-7.396,7.372-5.953,9.949   c0.6-1.894,1.889-3.442,3.906-3.541c3.154-0.143,5.375,3.812,5.747,5.881c0.289,1.49-0.459,1.604-1.451,0.687   c-1.303-1.224-2.63-1.644-4.296-1.342c-5.961,1.071-8.148,11.396-10.203,20.367c-1.947,8.547-6.564,14.434-12.188,16.813   c1.24,1.757,6.503,3.905,12.006,3.34C8.28,95.89,10.34,114.475,11.943,119.926c0.62-2.197,3.8-10.73,9.521-13.275   c-7.813,15.896-2.423,34.954,0.678,40.043c0.5-2.226,1.77-4.767,3.146-6.232c2.977,4.798,3.018,18.459-3.374,23.894   c3.854,0.178,9.579-1.176,12.952-8.08c3.8,14.647-3.245,28.993-8.036,33.776c1.372,0.742,10.004,2.168,14.998-4.223   c1.34,23.265,7.132,30.248,8.938,33.861c1.803,3.625,1.935,6.156,2.079,9.221c1.034,22.327,8.624,31.277,6.71,38.731   c-0.637,2.472-3.271,2.613-4.726,2.77c-3.373,0.364-4.295-0.2-7.875,0.91c-6.784,2.096-8.256,10.325-7.987,12.599   c0.169,1.447,0.905,1.879,2.029,1.879h31.309c2.286,0,3.03-1.24,3.754-4.105c-6.991-7.417-11.419-17.4-11.419-28.397   c0-15.418,8.417-29.076,20.902-36.217c0,0,0.765,2.048,5.316,1.891c1.877-0.062,2.043-1.197,3.171-1.087   c1.691,0.148,0.881,1.651,3.717,2.168c1.666,0.296,3.254,0.376,5.151,0.364c2.212-0.027,2.98-0.804,3.473-1.414   c0.744-0.92,1.91-0.779,2.46,0.012c0.442,0.63,0.988,1.193,2.079,1.523c1.716,0.504,8.219,0.538,10.753-0.045   c1.856-0.424,2.443-1.546,3.089-2.896c0.359-0.767,0.611-1.635,1.979-1.626c4.279,0.051,8.505-0.813,10.956-1.35   c3.46-0.75,4.387,0.687,5.011,2.541c4.85,14.538,21.113,25.34,28.24,30.659c2.101,1.564,2.567,3.427,2.001,6.112   c-0.355,1.761-2.447,9.161-5.333,12.843c-2.53,3.23-3.721,4.043-7.9,4.434c-2.021,0.19-7.606,0.105-10.29,2.404   c-4.361,3.721-4.92,9.575-4.846,10.459c0,0,0.092,1.784,2.034,1.784h22.659c2.121,0,3.172-0.378,3.981-1.381   c0.559-0.707,1.571-1.972,2.667-3.255c1.07-1.282,3.708-2.688,5.238-4.937c1.157-1.697,1.661-4.382,2.703-6.803   c1.811-4.19,6.458-10.147,10.551-15.854c2.666-3.737,2.984-6.697,0.07-11.541c-2.104-3.5-16.632-17.084-9.046-29.493   c1.551-2.536,4.204-4.173,6.408-2.048c2.336,2.251,3.092,7.299,24.954,29.173c2.757,2.747,3.604,4.13,4.551,5.93   c2.948,5.627,6.574,13.61,7.632,16.159c1.48,3.539,1.229,6.002,0.77,7.45c-0.687,2.156-1.877,3.595-3.002,5.695   c-1.438,2.689-1.463,6.642-0.682,9.021c0.604,1.83,2.046,1.881,4.602,1.881h21.328c2.05,0,2.12-1.073,2.373-2.218   C254.83,281.638,254.351,277.603,252.068,274.649 M40.561,51.888c0.607-0.399,2.282-1.397,4.576-2.193   c3.018-1.066,3.345-1.943,2.819-5.05c-0.239-1.414,0.728-2.011,2.299-2.592c1.096-0.397,4.593-1.366,6.933-1.867   c1.125,0.707,5.151,6.104,7.359,9.25c2.203-3.146,6.226-8.543,7.351-9.25c3.34,0.67,6.681,1.672,9.45,2.621   c2.547,0.876,3.676,1.888,4.899,5.215c0.935,2.586,1.285,5.567,1.285,5.567s-1.69,0.359-4.167,0.072   c-2.832-0.327-4.419-1.232-5.829-0.926c-2.414,0.482-5.411,3.527-5.701,4.767c-0.508,2.59,0.422,4.667,0.604,5.337   c0.773-2.828,2.274-4.771,4.135-4.889c0.777-0.052,1.798,0.49,3.236,0.664c0.836,0.105,1.683,0.064,2.443-0.444   c1.758-1.188,2.895-2.603,4.048-3.208c0,0,1.649,2.989,2.447,5.616c0.55,1.873-0.355,3.361-3.493,4.87   c-1.811,0.864-4.287,2.387-5.838,3.774c-1.542,1.376-1.207,3.045-0.43,4.306c1.435,2.333,2.667,5.575,2.84,8.212   c0.083,1.216-0.376,2.121-1.294,2.646c-1.19,0.686-3.183,1.162-5.726,1.038c-2.736-0.126-6.205-3.475-8.983-4.368l0.55-4.357   c0,0,4.267-2.675,6.755-4.914c0.579-0.517,0.323-1.587,0.248-2.29c-2.228-0.738-5.846-1.284-8.785-1.28   c-2.281,0.013-4.981,0.391-7.106,0.837c0.629-2.894,1.314-8.363,0.285-11.599c-0.376-1.236-4.473-4.267-6.883-4.771   c-1.414-0.275-3.014,0.622-5.846,0.944c-2.46,0.275-4.746-0.347-4.746-0.347S40.383,51.998,40.561,51.888 M63.249,97.167   c0.178,0.945,0.322,4.318-0.938,6.216c-0.24,0.368-0.513,0.417-0.935,0c-0.918-0.897-2.927-2.985-5.457-3.93   c-1.129-0.436-5.701-0.994-4.259-7.805c0.124-0.662,0.36-1.16,1.456-1.47c1.364-0.384,3.187-1.321,5.548-3.814   c0.6-0.63,1.831-1.098,3.175-0.674c1.059,0.331,1.803,0.529,2.712,0.529c0.914,0,1.653-0.198,2.699-0.529   c1.36-0.424,2.589,0.043,3.18,0.674c2.36,2.493,4.188,3.357,5.783,3.886c0.997,0.335,1.104,1.228,0.761,1.833   c-0.359,0.668-0.913,1.976-1.161,3.06c-0.228,1.089-0.587,3.028-2.625,4.487c-0.856,0.614-3.3,1.854-5.09,3.836   c-0.359,0.385-0.761,0.499-0.798-0.084c-0.054-0.589-0.174-4.843-2.984-6.947C63.571,95.877,63.059,96.173,63.249,97.167    M48.548,84.366c-0.918-0.525-1.369-1.435-1.286-2.646c0.24-3.493,2.315-8.039,4.271-10.143c0.294-0.308,2.98-1.104,4.308,0.089   c2.522,2.253,6.875,5.004,6.875,5.004l0.546,4.359c-2.766,0.901-6.255,4.242-8.983,4.37C51.735,85.521,49.738,85.048,48.548,84.366    M40.031,64.156c-1.142-0.771-1.956-3.392,0.889-9.55c1.157,0.601,3.497,2.335,5.25,3.518c0.77,0.506,1.608,0.537,2.439,0.444   c1.435-0.174,2.473-0.724,3.245-0.67c2.146,0.141,2.179,4.903,2.204,5.49c0.033,0.598-0.24,0.622-0.633,0.293   c-0.968-0.788-1.853-0.771-2.53-0.771c-0.942,0.004-3.188,0.906-4.138,1.16C45.811,64.326,42.012,65.502,40.031,64.156    M47.874,146.453c-8.128-16.016,9.45-19.72,15.482-27.038C62.244,127.428,50.218,131.074,47.874,146.453 M71.405,174.377   c2.014-3.806,7.103-14.187,2.484-28.167c-4.865,2.652-9.578,9.848-11.27,17.054c-5.296-20.601,10.521-27.771,14.139-45.695   c4.655,8.254-6.511,19.371,2.323,29.02c5.553-22.823,27.046-14.674,25.835-42.571c9.715,22.463-4.461,28.486-7.569,45.428   c-2.923-5.081-3.163-11.392-0.368-18.428C82.841,137.873,90.542,167.599,71.405,174.377 M226.59,196.509   c-0.637,2.89-3.188,3.645-4.561,1.726c-2.493-3.503-3.543-21.628-23.168-30.87c-2.98-1.391-3.932,0.271-3.166,2.003   c3.084,6.832,4.39,13.254,3.493,19.66c-0.285,2.085-1.646,3.136-2.853,0.893c-1.079-2.02-3.353-5.881-5.164-7.607   c-3.369-3.243-7.875-3.214-11.849-2.689c-3.96,0.525-20.654,5.61-24.321,1.066c-2.24-2.792-5.448-8.64-3.654-15.734   c0.476-1.875-1.194-2.509-3.154-1.187c-5.94,4.047-3.634,17.996-3.233,20.617c0.464,3.018,0.637,5.461-2.029,8.014   c-4.072,3.902-10.638,10.959-13.291,12.801c-2.65,1.854-5.383,1.495-7.211,3.283c-1.396,1.37-1.343,4.981-3.691,5.664   c-1.157,0.347-3.737,0.498-5.598,0.231c-1.84-0.248-2.749-0.498-2.997-3.454c-0.095-1.1-0.844-1.486-1.803-0.049   c-0.752,1.095-1.455,2.259-3.088,2.691c-1.864,0.512-4.383,0.711-6.648,0.217c-1.641-0.347-2.344-0.814-2.344-2.385   c0-0.692,0.041-1.311-0.017-1.747c-0.054-0.56-0.55-0.609-1.194-0.182c-1.108,0.74-1.575,2.553-3.882,2.636   c-1.319,0.047-5.016,0.043-3.92-4.102c0.629-2.319,2.134-9.017,10.249-10.612c3.208-0.618,11.98,0.343,14.892-0.198   c3.203-0.602,5.605-2.507,5.605-4.62c0-2.112-6.594-1.616-6.986-3.599c-0.761-3.737,10.992-6.578,10.397-10.389   c-0.468-2.906-3.729-2.966-4.255-5.075c-0.537-2.117,3.602-7.865,3.602-12.68c0-6.41-3.602-10.054-4.602-15.05   c-0.968-4.787,0.111-11.204,2.229-14.435c1.492-2.29,2.567-2.96,5.944-3.328c11.725-1.273,26.587,10.724,30.544,13.178   c12.973,8.049,20.224,9.682,36.376,12.595c9.67,1.765,20.526,2.701,28.679,14.145C224.163,173.933,228.467,188.067,226.59,196.509"/>
	<path fill="#ED1A3A" d="M119.267,231.222c-5.929-0.325-13.539,1.139-17.88,3.7c-0.025,6.143-0.653,12.4-1.819,17.797   c4.026,2.96,12.395,6.491,17.145,7.505c3.717-2.71,8.475-8.318,11.029-12.595C126.241,241.522,123.355,235.131,119.267,231.222    M116.27,237.886c-4.87-1.271-12.357-1.292-12.357-1.292c4.188-1.43,9.455-2.621,14.122-2.514   c2.919,3.171,4.896,7.547,6.656,12.531C124.69,246.611,120.391,241.065,116.27,237.886"/>
	<path fill="#ED1A3A" d="M125.137,221.802c-0.024-0.025-0.905,1.478-5.089,1.679c0.504,0.643,1.303,2.09,1.534,2.941   c0,0,4.895,0.343,8.073,1.155c3.457,3.086,6.049,6.718,7.889,11.173c-0.009,0.024-2.134,4.487-4.676,8.872   c2.125,4.362,4.543,9.933,4.944,15.007c-2.386,6.135-6.599,11.371-11.973,15.009c0.731-1.749,1.542-4.124,2.051-6.612   c-3.039-0.258-8.343-1.352-11.092-2.253c-3.258,4.035-7.215,6.782-12.237,9.279c0.728,1.635,2.257,3.967,3.299,5.093   c-8.202,0-15.697-3.082-21.374-8.144c0,0,4.089,0.554,7.748-0.137c-0.856-4.547-1.175-12.434-0.786-16.477   c-5.733-1.629-10.931-3.851-15.052-6.435c-0.777,1.507-1.629,3.558-2.142,4.798c-1.303-7.384-0.153-14.97,3.704-21.65   c0.521,0.831,1.063,1.711,1.476,2.451c3.837-2.629,9.091-5.339,14.71-7.138c0.252-2.273,0.822-5.55,1.298-7.671   c0,0-2.117-0.198-3.026-1.139c-0.459-0.461-0.992-0.424-1.389-0.24c-1.931,0.901-4.738,0.304-5.296,0.041   c-10.79,6.375-18.244,18.288-18.244,31.742c0,20.25,16.408,36.654,36.649,36.654c20.253,0,36.657-16.404,36.657-36.654   C142.794,239.85,135.721,228.225,125.137,221.802 M122.14,280.596c-0.215-1.914-0.517-4.233-0.624-5.481   c-1.699-1.511-3.221-2.845-4.485-3.861c2.075,0.618,5.614,1.44,7.958,1.918C124.624,274.819,122.917,279.271,122.14,280.596    M136.65,246.886l1.939-4.314c0,0,2.799,9.267,0.132,17.019C138.722,259.591,138.722,253.096,136.65,246.886"/>
	<path fill="#00235D" d="M16.698,299.334H0c2.021,1.197,3.043,5.288,3.043,8.152v40.869c0,3.655-1.691,7.193-2.948,8.251h13.933   v-19.809c0,0,1.183,0.056,2.203,0.056c13.833,0,22.267-8.797,22.267-19.842C38.497,305.871,30.696,299.574,16.698,299.334    M15.727,327.637c-1.013,0-1.699-0.038-1.699-0.038v-19.304c0,0,1.021,0.027,2.369,0.027c7.429,0,10.716,3.632,10.716,9.364   C27.112,323.84,22.469,327.554,15.727,327.637"/>
	<path fill="#00235D" d="M72.228,334.611c-1.509-2.698-2.881-3.413-2.881-3.413c5.639-1.825,10.533-7.456,10.533-15.892   c0-11.642-8.09-16.028-20.666-16.028l-18.033,0.008c2.038,1.199,3.047,5.288,3.047,8.148v40.87c0,3.669-1.671,7.2-2.939,8.254   h13.944v-23.465l1.476,0.008c2.717,0,3.217,1.939,3.717,2.859l9.67,20.598h13.589 M57.779,325.119h-2.563V308.19h2.906   c7.045,0,10.29,2.727,10.29,8.221C68.412,321.723,64.36,325.119,57.779,325.119"/>
	<path fill="#00235D" d="M288.561,334.611c-1.513-2.698-2.882-3.413-2.882-3.413c5.636-1.825,10.53-7.456,10.53-15.892   c0-11.642-8.103-16.028-20.671-16.028l-18.021,0.008c2.013,1.199,3.034,5.288,3.034,8.148v40.87c0,3.669-1.683,7.2-2.932,8.254   h13.933v-23.465l1.476,0.008c2.725,0,3.221,1.939,3.729,2.859l9.665,20.598H300 M274.107,325.119h-2.563V308.19h2.897   c7.045,0,10.294,2.727,10.294,8.221C284.736,321.723,280.681,325.119,274.107,325.119"/>
	<path fill="#00235D" d="M141.876,299.299l12.709,21.824c1.67,2.849,2.642,4.513,3.353,6.431h0.079   c0.748-1.97,1.785-3.557,3.53-6.458l12.729-21.771h10.923v57.281h-11.047c0,0,0.017-38.503,0-38.46h-0.128   c-0.731,2.408-2.249,4.94-3.101,6.371l-10.311,16.853h-5.196l-10.336-16.853c-0.711-1.079-1.927-3.495-2.869-6.371l-0.198,0.013   v38.392h-13.829c1.257-1.054,2.936-4.584,2.936-8.254v-40.87c0-2.861-1.025-6.925-3.034-8.128"/>
	<path fill="#00235D" d="M207.981,356.551H194.05c1.252-1.054,2.931-4.584,2.931-8.254v-40.87c0-2.861-1.013-6.941-3.034-8.148   l14.027-0.008"/>
	<path fill="#00235D" d="M88.281,356.56c1.261-1.054,2.939-4.584,2.939-8.254v-40.87c0-2.861-1.014-6.95-3.043-8.148l32.651,0.039   v9.3h-18.583v13.818h16.392v9.178h-16.392v15.569h19.919l-3.907,9.415"/>
	<path fill="#00235D" d="M217.887,356.56c1.249-1.054,2.939-4.584,2.939-8.254v-40.87c0-2.861-1.021-6.95-3.051-8.148l32.651,0.039   v9.3h-18.578v13.818h16.392v9.178h-16.392v15.569h19.914l-3.903,9.415"/>
	<path fill="#00235D" d="M51.255,425.174c1.249-1.05,2.932-4.589,2.932-8.25v-40.878c0-2.853-1.025-6.941-3.043-8.14l32.651,0.029   v9.302H65.212v13.83h16.389v9.174H65.212v15.57h19.91l-3.906,9.415"/>
	<path fill="#00235D" d="M251.436,425.174c1.266-1.05,2.944-4.589,2.944-8.25v-40.878c0-2.853-1.014-6.941-3.043-8.14l32.66,0.029   v9.302h-18.592v13.83h16.392v9.174h-16.392v15.57h19.914l-3.911,9.415"/>
	<path fill="#00235D" d="M15.185,425.174c1.27-1.05,2.948-4.589,2.948-8.25v-40.878c0-2.853-1.018-6.941-3.043-8.14l14.072-0.017   v47.922h19.042l-3.906,9.415"/>
	<path fill="#00235D" d="M178.447,415.075v-9.924c0-3.661-1.642-7.227-2.906-8.285h13.746l0.066,24.436   c-4.779,2.656-12.663,4.627-19.489,4.627c-18.054,0-28.555-11.607-28.555-28.978c0-17.889,11.493-29.655,31.664-29.655   c5.324,0,10.401,1.232,13.692,2.625l0.017,10.854c-3.354-1.972-9.05-3.696-14.37-3.696c-11.217,0-19.108,6.511-19.108,19.829   c0,12.063,6.366,19.144,17.926,19.144C173.833,416.052,176.632,415.693,178.447,415.075"/>
	<path fill="#00235D" d="M136.613,417.159c-0.781-2.156-16.686-49.123-16.686-49.123h-11.199c0,0-15.908,46.991-16.686,49.147   c-1.273,3.495-2.812,6.888-4.428,8.015h12.989l3.684-11.643h19.997l3.767,11.623h12.985   C139.416,424.045,137.879,420.654,136.613,417.159 M106.885,404.872l4.774-14.511c1.021-3.291,1.89-6.16,2.519-9.525h0.065   c0.67,3.365,1.414,6.226,2.436,9.343l4.936,14.693H106.885z"/>
	<path fill="#00235D" d="M198.937,376.28c0-3.663-1.642-7.227-2.895-8.285l13.626,0.033v36.521c0,7.499,2.671,12.234,11.597,12.234   c8.289,0,11.77-4.711,11.77-12.17v-36.586h10.688v37.098c0,11.727-6.838,20.764-23.197,20.764   c-17.008,0-21.621-9.158-21.621-20.662"/>
</g>
</svg>