<?xml version="1.0" encoding="utf-8"?>
<!-- Generator: Adobe Illustrator 16.0.0, SVG Export Plug-In . SVG Version: 6.00 Build 0)  -->
<!DOCTYPE svg PUBLIC "-//W3C//DTD SVG 1.1//EN" "http://www.w3.org/Graphics/SVG/1.1/DTD/svg11.dtd">
<svg version="1.1" id="Layer_1" xmlns="http://www.w3.org/2000/svg" xmlns:xlink="http://www.w3.org/1999/xlink" x="0px" y="0px"
	 width="380px" height="420px" viewBox="0 0 380 420" enable-background="new 0 0 380 420" xml:space="preserve">
<g>
	<defs>
		<rect id="SVGID_1_" width="380" height="420"/>
	</defs>
	<clipPath id="SVGID_2_">
		<use xlink:href="#SVGID_1_"  overflow="visible"/>
	</clipPath>
	<path clip-path="url(#SVGID_2_)" d="M209.345,341.16c2.664-1.816,5.986-2.331,9.147-2.299c3.591-0.069,7.176,0.588,10.574,1.724
		c0.102,2.487,0.32,4.964,0.498,7.446c-3.905-0.937-7.92-1.98-11.962-1.434c-1.009,0.143-2.313,0.789-2.239,1.977
		c-0.266,1.583,1.481,2.221,2.627,2.769c3.937,1.624,8.472,2.691,11.305,6.122c2.017,2.856,1.958,6.739,0.79,9.918
		c-1.36,3.632-5.292,5.438-8.897,5.968c-4.652,0.516-9.457,0.133-13.882-1.441c-0.319-2.491-0.36-5.005-0.57-7.505
		c3.695,0.972,7.51,1.871,11.359,1.528c1.196-0.215,2.719-0.548,3.221-1.815c0.538-1.118,0.261-2.678-0.876-3.313
		c-2.399-1.415-5.182-1.999-7.654-3.267c-2.455-1.163-5.02-2.714-6.082-5.352C205.362,348.459,206.005,343.646,209.345,341.16"/>
	<path clip-path="url(#SVGID_2_)" d="M288.486,339.265c5.816-1.224,11.856-0.27,17.51,1.309c0.178,2.511,0.359,5.015,0.52,7.523
		c-3.731-0.994-7.574-1.843-11.46-1.756c-2.568,0.05-5.273,1.025-6.721,3.266c-1.587,2.637-1.61,5.849-1.382,8.824
		c0.288,2.349,1.122,4.922,3.229,6.254c2.382,1.574,5.411,1.419,8.104,0.936c0.045-2.021,0.041-4.042,0.004-6.063
		c-1.537-0.005-3.075-0.005-4.608,0.004v-5.771c4.494,0.019,8.992-0.009,13.491,0.015c-0.009,5.784,0.022,11.574-0.023,17.358
		c-5.552,2.162-11.711,2.983-17.614,2.049c-4.539-0.789-9.028-3.546-10.767-7.971c-2.177-5.493-2.222-11.843-0.278-17.409
		C279.936,343.406,284.047,340.29,288.486,339.265"/>
	<path clip-path="url(#SVGID_2_)" d="M68.389,339.286c3.043,0.005,6.086-0.022,9.129,0.019c0.009,6.386,0,12.776,0.004,19.167
		c0.032,1.603,0.183,3.342,1.205,4.66c1.683,2.409,5.31,2.763,7.756,1.363c1.884-1.154,2.614-3.441,2.632-5.535
		c0.041-6.553,0-13.106,0.018-19.655c3.029-0.045,6.059-0.01,9.088-0.023c0.091,6.513,0.037,13.03,0.027,19.543
		c0.051,4.081-1.437,8.275-4.484,11.087c-2.774,2.438-6.542,3.52-10.201,3.528c-3.892,0.05-7.979-1.041-10.867-3.741
		c-2.861-2.794-4.325-6.829-4.302-10.779C68.375,352.375,68.389,345.83,68.389,339.286"/>
	<path clip-path="url(#SVGID_2_)" d="M331.554,339.306c-3.601-0.036-7.204-0.056-10.804,0.009
		c-3.974,11.274-8.053,22.511-12.025,33.784c3.271,0.01,6.546,0,9.816,0.005c0.631-2.328,1.456-4.596,2.085-6.924
		c3.72,0.046,7.438-0.046,11.155,0.05c0.593,2.319,1.391,4.578,2.076,6.869c3.262,0.01,6.524-0.009,9.79,0.014
		C339.628,361.84,335.586,350.574,331.554,339.306 M322.767,358.844c0.999-3.796,2.596-7.418,3.408-11.265
		c0.733,3.86,2.44,7.45,3.357,11.265C327.273,358.849,325.021,358.844,322.767,358.844"/>
	<path clip-path="url(#SVGID_2_)" d="M63.442,361.192c-0.86-2.71-3.26-5.03-6.14-5.4c1.83-0.75,3.73-1.74,4.74-3.52
		c1.68-2.99,1.37-7.12-0.99-9.66c-2.65-2.51-6.43-3.181-9.95-3.28c-4.9-0.02-9.82-0.01-14.73-0.01
		c-0.02,11.26,0.03,22.52-0.02,33.77c5.25-0.02,10.49,0.03,15.74-0.02c3.6-0.15,7.51-1.12,9.93-3.99
		C63.882,366.942,64.123,363.842,63.442,361.192 M51.473,346.992c2.43,0.59,2.5,4.47,0.29,5.4c-1.98,0.789-4.18,0.439-6.25,0.439
		c-0.01-2.01,0-4.02-0.01-6.04C47.482,346.882,49.513,346.582,51.473,346.992 M52.393,365.002c-2.16,0.96-4.6,0.38-6.89,0.54
		c0.01-2.2,0.01-4.399,0-6.59c2.31,0.16,4.76-0.43,6.95,0.51C54.603,360.522,54.583,363.992,52.393,365.002"/>
	<path clip-path="url(#SVGID_2_)" d="M104.592,339.344c3.262-0.059,6.524,0.023,9.786-0.05c3.864,5.977,7.569,12.054,11.419,18.039
		c0.648,0.99,1.218,2.044,1.519,3.193c-0.032-7.067-0.036-14.138,0.009-21.209c3.02,0.009,6.045,0.009,9.065,0
		c0.005,11.264-0.013,22.527,0.01,33.787c-3.299-0.036-6.593,0.022-9.891-0.032c-3.399-5.438-6.793-10.876-10.197-16.311
		c-0.94-1.555-2.089-3.032-2.541-4.825c-0.119,7.053,0.005,14.105-0.068,21.153c-3.039,0.011-6.082-0.004-9.12,0.011
		C104.601,361.85,104.583,350.594,104.592,339.344"/>
	<path clip-path="url(#SVGID_2_)" d="M172.08,354.362c-0.155-4.068-1.51-8.33-4.635-11.095c-3.011-2.746-7.172-3.832-11.159-3.938
		c-4.444-0.018-8.883-0.005-13.322-0.005c0,11.255-0.032,22.511,0.018,33.766c4.599-0.01,9.202,0.031,13.801-0.015
		c4.945-0.136,10.16-2.188,12.879-6.514C171.837,362.922,172.331,358.532,172.08,354.362 M159.972,363.725
		c-2.19,1.829-5.228,1.373-7.87,1.423c0.014-6.058,0.014-12.121,0-18.18c2.564,0.05,5.484-0.415,7.628,1.337
		c2.377,1.907,2.633,5.219,2.665,8.043C162.29,358.93,162.061,361.908,159.972,363.725"/>
	<path clip-path="url(#SVGID_2_)" d="M177.547,373.095c0.005-11.255-0.005-22.51,0.005-33.765c8.175,0.009,16.35-0.054,24.53,0.032
		c-0.063,2.537,0.137,5.083-0.142,7.604c-5.091-0.013-10.183,0.015-15.27-0.013c0.014,1.866,0.009,3.736,0,5.603
		c4.471,0.005,8.947-0.027,13.418,0.018c0.009,2.432-0.005,4.864,0.009,7.295c-4.471,0-8.942-0.032-13.418,0.02
		c0,1.884-0.041,3.768,0.06,5.646c5.119,0.046,10.237-0.068,15.356,0.06c-0.027,2.482-0.027,4.964,0,7.445
		C193.912,373.168,185.727,373.055,177.547,373.095"/>
	<path clip-path="url(#SVGID_2_)" d="M235.744,339.304c3.043,0.018,6.086-0.005,9.129,0.014c0.009,8.736,0,17.474,0.004,26.209
		c4.868,0.005,9.735,0,14.599,0c-0.004,2.52-0.004,5.037,0,7.556c-7.906-0.004-15.812,0.005-23.718-0.004
		C235.726,361.817,235.758,350.559,235.744,339.304"/>
	<rect x="263.426" y="339.317" clip-path="url(#SVGID_2_)" width="9.146" height="33.777"/>
	<rect x="36.35" y="65.642" clip-path="url(#SVGID_2_)" fill="#FFFFFF" width="307.3" height="246.1"/>
	<path clip-path="url(#SVGID_2_)" fill="#D00614" d="M36.35,311.742h307.3v-246.1H36.35V311.742z M289.35,197.002l-0.1,0.99
		l-2.36,0.11l-0.08-0.36c-0.34,0.17-0.71,0.36-1.079,0.54l-0.141,1.42l-2.359,0.2l-0.08-0.37c-2.181,1.03-4.29,1.98-5.25,2.39
		c-2.511,1-7.16,3.38-10.141,4.82l-0.18,1.71l-2.35,0.15l-0.15-0.68c-0.04,0.01-0.061,0.01-0.08,0.01
		c-0.26,0.54-1.04,2.15-1.04,2.15s-7.57,0.92-8.83-2.31c-0.189-2.55-0.45-5.14-1.57-7.46l-0.04,0.03
		c-11.909-2.37-24.069-1.08-36.109-1.55c-5.09-0.69-9.141-3.82-13.74-5.7c-7.689-0.47-27.7-0.61-27.7-0.61l-1.17,1.67l-38.83-0.05
		l4.76,3.11c0,0,2.04,11.34,1.99,17.61l-2.09,0.25c0,0,2.04,26.58,0.51,28.97c-2.74,4.271-13.63,11.24-13.63,11.24l-0.29,1.7
		c0,0-20.91,6.92-31.01,10.41c-6.54,2.289-12.31,6.239-18.6,9.09c-6.37,2.949-12.06,7.739-15.12,13.97
		c-4.08,3.62-5.61,0.28-5.61,0.28l-0.76-7.16c0,0,0.46-0.62,1.18-1.811v-2.05l1.42-0.45c1.71-3.229,3.89-8.14,5.38-14.34
		l-0.61-2.689l1.25-0.311c0.15-0.74,0.27-1.5,0.39-2.27c1.42-2.67,4.75-3.17,4.75-3.17s4.1,0.29,6.62,2.149
		c0.51,0.23,1.54,0.7,2.05,0.931c3.45,0.649,7.32,0.52,9.98-2.091c9.64-8.18,17.09-18.43,29.84-21.77
		c-0.3-0.13-8.07-21.05-8.07-21.05l-2.17-0.17c-8.33-22.33-5.25-44.66-5.25-44.66l-2.59,0.07c0,0,0.95-24.4,8.62-45.1l6.83-2.61
		c0,0-13.3-1.55-19.93-1.42c-7.21,4.84-13.11,11.49-20.08,16.7c-3.66,2.38-3.71,7.49-7.36,9.86c-4.02,3.01-17.88,7.14-13.34,0.49
		c2.95-1.41,5.79-4.26,5.79-4.26s-4,1.14-5.5,1.21c-0.98,0.04-2.62-0.39-2.62-1.38c0-1.86,4.44-2.16,6.56-3.43
		c2.39-1.45,3.59-4.39,6.32-5.35c3.86-1.15,6.25-4.55,8.52-7.63c5.09-7.5,14.26-19.07,17.46-20.79c1.47-0.79,5.62-1.37,5.62-1.37
		s-0.16-1.19-0.23-1.79c13.52-1.84,27.4-2.01,40.89,0.25c0.01-6.29,2.35-13.24,8.41-16.09c2.1-1.13,4.37-1.63,6.67-1.63
		c6.77,0,13.8,4.31,17.25,9.6c2.13,3.25-1.13,7.56-1.13,7.56s-0.74,4.69,0.32,11.11c-0.32,0.96-1.53,1.74-2.43,2.12
		c-2.46,1.04-2.5,5.69-4.46,8.38c-1.84,1.25-6.29,0.29-9.03,0.32c-0.26,0.42-0.78,1.26-1.04,1.68c-0.71,1.65-1.22,3.41-2.15,4.95
		c-4.82,8.01-8.66,27.58-8.66,27.58l39.12,5.33l0.31,2.49c0,0,11.81,2.13,17.08,4.45c7.141,3.23,12.17,1.21,19.48,3.13l1.35-0.85
		c9.271,3.23,21.511,10.34,30.9,13.29c5.14,1.46,15.26,4.53,15.68,4.66l0.05-0.04c7.15,0.4,14.301,0.35,21.46,0.54h0.141
		c0.04,0,0.08,0.01,0.12,0.01h0.02c0.99,0.03,1.88,0.36,2.521,0.87c0.64,0.51,1.029,1.21,1.029,1.98
		C290.85,195.652,290.26,196.482,289.35,197.002 M310.05,187.252c-9.52,0-17.25-7.73-17.25-17.25c0-9.53,7.73-17.25,17.25-17.25
		c9.53,0,17.25,7.72,17.25,17.25C327.3,179.522,319.58,187.252,310.05,187.252"/>
</g>
</svg>
